<svg width="23" height="19" viewBox="0 0 23 19" fill="none" xmlns="http://www.w3.org/2000/svg">
<path d="M22.5 7.9375C22.5 7.42969 22.0703 7 21.5625 7H18.9062L14.7266 1.29688C14.3359 0.710938 13.5547 0.59375 13.0078 1.02344C12.4219 1.41406 12.3047 2.19531 12.7344 2.74219L15.8203 7H6.64062L9.72656 2.74219C10.1562 2.19531 10.0391 1.41406 9.45312 1.02344C8.90625 0.59375 8.125 0.710938 7.73438 1.29688L3.55469 7H0.9375C0.390625 7 0 7.42969 0 7.9375V8.5625C0 9.10938 0.390625 9.5 0.9375 9.5H1.25L2.26562 16.6484C2.38281 17.5859 3.16406 18.25 4.10156 18.25H18.3594C19.2969 18.25 20.0781 17.5859 20.1953 16.6484L21.25 9.5H21.5625C22.0703 9.5 22.5 9.10938 22.5 8.5625V7.9375ZM12.1875 14.8125C12.1875 15.3594 11.7578 15.75 11.25 15.75C10.7031 15.75 10.3125 15.3594 10.3125 14.8125V10.4375C10.3125 9.92969 10.7031 9.5 11.25 9.5C11.7578 9.5 12.1875 9.92969 12.1875 10.4375V14.8125ZM16.5625 14.8125C16.5625 15.3594 16.1328 15.75 15.625 15.75C15.0781 15.75 14.6875 15.3594 14.6875 14.8125V10.4375C14.6875 9.92969 15.0781 9.5 15.625 9.5C16.1328 9.5 16.5625 9.92969 16.5625 10.4375V14.8125ZM7.8125 14.8125C7.8125 15.3594 7.38281 15.75 6.875 15.75C6.32812 15.75 5.9375 15.3594 5.9375 14.8125V10.4375C5.9375 9.92969 6.32812 9.5 6.875 9.5C7.38281 9.5 7.8125 9.92969 7.8125 10.4375V14.8125Z" fill="#FB8500"/>
</svg>
