<svg width="20" height="20" viewBox="0 0 20 20" fill="none" xmlns="http://www.w3.org/2000/svg">
<path d="M17.0663 2.92897C15.1776 1.04018 12.6663 0 9.99526 0C7.32417 0 4.81295 1.04018 2.92423 2.92897C-0.974742 6.828 -0.974742 13.1721 2.92423 17.0711C4.81295 18.9598 7.32417 20 9.99532 20C12.6664 20 15.1776 18.9598 17.0663 17.071C18.9551 15.1823 19.9953 12.6711 19.9953 10C19.9953 7.32891 18.9551 4.8177 17.0663 2.92897ZM15.7807 15.7855C14.2353 17.3307 12.1807 18.1818 9.99532 18.1818C7.80986 18.1818 5.75526 17.3307 4.20986 15.7855C1.0198 12.5953 1.0198 7.40473 4.20986 4.21461C5.7552 2.66921 7.8098 1.81818 9.99526 1.81818C12.1807 1.81818 14.2353 2.66921 15.7807 4.21455C17.326 5.75994 18.1771 7.81455 18.1771 10C18.1771 12.1855 17.326 14.2401 15.7807 15.7855Z" fill="black"/>
<path d="M15.1405 9H4.85477C4.38139 9 3.99762 9.40703 3.99762 9.90909C3.99762 10.4112 4.38139 10.8182 4.85477 10.8182H15.1405C15.6138 10.8182 15.9976 10.4112 15.9976 9.90909C15.9976 9.40703 15.6138 9 15.1405 9Z" fill="black"/>
</svg>
