<svg width="40" height="40" viewBox="0 0 40 40" fill="none" xmlns="http://www.w3.org/2000/svg">
<path d="M39.661 3.05083V15.1864C39.1864 15.1187 38.7118 14.8474 38.305 14.5763C37.4915 13.9661 36.9491 12.9492 36.9491 11.8644V0.338989C38.4406 0.338989 39.661 1.55933 39.661 3.05083ZM16.6102 0.338989V11.8644C16.6102 13.7627 15.1187 15.2543 13.2203 15.2543C11.322 15.2543 9.83047 13.7628 9.83047 11.8644V0.338989H16.6102ZM30.1694 0.338989V11.8644C30.1694 13.7627 28.6779 15.2543 26.7796 15.2543C24.8812 15.2543 23.3898 13.7627 23.3898 11.8644V0.338989H30.1694ZM3.05084 0.338989V11.8644C3.05084 12.9492 2.50844 13.9661 1.69489 14.5763C1.28811 14.8474 0.813557 15.1187 0.338928 15.1864V3.05083C0.339008 1.55933 1.55935 0.338989 3.05084 0.338989Z" fill="#FF7474"/>
<path d="M38.305 14.5763V27.4576H1.69489V14.5763C2.50844 13.9661 3.05084 12.9492 3.05084 11.8645C3.05084 13.7627 4.54234 15.2542 6.4407 15.2542C8.33905 15.2542 9.83055 13.7627 9.83055 11.8644C9.83055 13.7627 11.322 15.2542 13.2204 15.2542C15.1187 15.2542 16.6103 13.7627 16.6103 11.8644C16.6103 13.7627 18.1018 15.2542 20.0001 15.2542C21.8985 15.2542 23.39 13.7627 23.39 11.8644C23.39 13.7627 24.8815 15.2542 26.7798 15.2542C28.6782 15.2542 30.1697 13.7627 30.1697 11.8644C30.1697 13.7627 31.6612 15.2542 33.5595 15.2542C35.4579 15.2542 36.9494 13.7627 36.9494 11.8644C36.9492 12.9492 37.4915 13.9661 38.305 14.5763Z" fill="#ECF4F7"/>
<path d="M9.83047 0.338989V11.8644C9.83047 13.7627 8.33897 15.2543 6.44062 15.2543C4.54226 15.2543 3.05084 13.7627 3.05084 11.8644V0.338989H9.83047ZM23.3898 0.338989V11.8644C23.3898 13.7627 21.8983 15.2543 20 15.2543C18.1016 15.2543 16.6101 13.7628 16.6101 11.8644V0.338989H23.3898ZM36.9492 0.338989V11.8644C36.9492 13.7627 35.4577 15.2543 33.5593 15.2543C31.6609 15.2543 30.1694 13.7628 30.1694 11.8644V0.338989H36.9492Z" fill="#50DD8E"/>
<path d="M38.305 27.4576V38.305H34.2372H5.76268H1.69489V27.4576H38.305Z" fill="#FFD0A1"/>
<path d="M13.2203 19.9999L12.2034 27.3897V27.4575H7.52542V27.3897L6.4407 19.9999C6.4407 19.9999 7.11864 18.644 9.83056 18.644C12.5425 18.644 13.2203 19.9999 13.2203 19.9999Z" fill="#AE938D"/>
<path d="M34.2372 24.7458C34.2372 24 33.6271 23.3898 32.8813 23.3898C32.1355 23.3898 31.5253 24 31.5253 24.7458H34.2372ZM28.8136 24.7458C28.8136 24 28.2034 23.3898 27.4576 23.3898C26.7118 23.3898 26.1016 24 26.1016 24.7458H28.8136ZM23.3898 24.7458C23.3898 24 22.7796 23.3898 22.0338 23.3898C21.2881 23.3898 20.6779 24 20.6779 24.7458H23.3898ZM31.5254 20.678C31.5254 19.9322 30.9152 19.322 30.1694 19.322C29.4236 19.322 28.8135 19.9322 28.8135 20.678H31.5254ZM26.1016 20.678C26.1016 19.9322 25.4915 19.322 24.7457 19.322C23.9999 19.322 23.3897 19.9322 23.3897 20.678H26.1016Z" fill="#50DD8E"/>
<path d="M34.2372 40C34.0338 40 33.8982 39.8644 33.8982 39.661V38.305C33.8982 38.1016 34.0338 37.966 34.2372 37.966H37.966V27.7965H4.40672C4.20333 27.7965 4.06771 27.6609 4.06771 27.4575C4.06771 27.2541 4.20333 27.1185 4.40672 27.1185H38.305C38.5084 27.1185 38.644 27.2541 38.644 27.4575V38.305C38.644 38.5083 38.5084 38.644 38.305 38.644H34.5762V39.6609C34.5762 39.8644 34.4406 40 34.2372 40ZM5.76268 40C5.55929 40 5.42367 39.8644 5.42367 39.661V38.644H1.69489C1.4915 38.644 1.35588 38.5084 1.35588 38.305V17.6271C1.35588 17.4237 1.4915 17.2881 1.69489 17.2881C1.89828 17.2881 2.0339 17.4237 2.0339 17.6271V37.9661H5.76268C5.96607 37.9661 6.10169 38.1017 6.10169 38.3051V39.661C6.10169 39.8644 5.96607 40 5.76268 40ZM31.5254 38.644H8.4746C8.27121 38.644 8.13559 38.5084 8.13559 38.305C8.13559 38.1016 8.27121 37.966 8.4746 37.966H31.5254C31.7288 37.966 31.8644 38.1016 31.8644 38.305C31.8644 38.5084 31.7288 38.644 31.5254 38.644ZM12.5424 25.0847C12.339 25.0847 12.2034 24.8813 12.2034 24.6779L12.8813 20.0677C12.6779 19.7966 11.9321 18.983 9.83047 18.983C7.72881 18.983 6.98302 19.7966 6.77963 20.0677L7.45757 24.6779C7.45757 24.8813 7.32195 25.0169 7.18641 25.0847C6.98302 25.0847 6.8474 24.9491 6.77963 24.8135L6.10169 20.0678C6.10169 20 6.10169 19.9322 6.10169 19.8644C6.10169 19.7966 6.91525 18.3051 9.7627 18.3051C12.6102 18.3051 13.4237 19.7966 13.4237 19.8644C13.4237 19.9322 13.4915 20 13.4237 20.0678L12.7458 24.8135C12.8813 24.9492 12.6779 25.0847 12.5424 25.0847ZM38.305 25.0847C38.1016 25.0847 37.966 24.9491 37.966 24.7457V17.6271C37.966 17.4237 38.1016 17.288 38.305 17.288C38.5084 17.288 38.644 17.4237 38.644 17.6271V24.7457C38.644 24.9492 38.5084 25.0847 38.305 25.0847ZM34.2372 25.0847C34.0338 25.0847 33.8982 24.9491 33.8982 24.7457C33.8982 24.2033 33.4237 23.7287 32.8813 23.7287C32.3389 23.7287 31.8643 24.2033 31.8643 24.7457C31.8643 24.9491 31.7287 25.0847 31.5253 25.0847C31.3219 25.0847 31.1863 24.9491 31.1863 24.7457C31.1863 23.7965 31.9321 23.0508 32.8812 23.0508C33.8304 23.0508 34.5761 23.7966 34.5761 24.7457C34.5762 24.9492 34.4406 25.0847 34.2372 25.0847ZM28.8136 25.0847C28.6102 25.0847 28.4746 24.9491 28.4746 24.7457C28.4746 24.2033 28 23.7287 27.4576 23.7287C26.9152 23.7287 26.4407 24.2033 26.4407 24.7457C26.4407 24.9491 26.305 25.0847 26.1016 25.0847C25.8983 25.0847 25.7626 24.9491 25.7626 24.7457C25.7626 23.7965 26.5084 23.0508 27.4575 23.0508C28.4067 23.0508 29.1524 23.7966 29.1524 24.7457C29.1525 24.9492 29.017 25.0847 28.8136 25.0847ZM23.3898 25.0847C23.1864 25.0847 23.0508 24.9491 23.0508 24.7457C23.0508 24.2033 22.5763 23.7287 22.0339 23.7287C21.4915 23.7287 21.0169 24.2033 21.0169 24.7457C21.0169 24.9491 20.8813 25.0847 20.6779 25.0847C20.4745 25.0847 20.339 24.9492 20.339 24.7458C20.339 23.7966 21.0848 23.0509 22.0339 23.0509C22.983 23.0509 23.7287 23.7967 23.7287 24.7458C23.7288 24.9492 23.5932 25.0847 23.3898 25.0847ZM9.83047 25.0847C9.62709 25.0847 9.49147 24.9491 9.49147 24.7457V22.0339C9.49147 21.8305 9.62709 21.6948 9.83047 21.6948C10.0339 21.6948 10.1695 21.8305 10.1695 22.0339V24.7457C10.1695 24.9492 10.0339 25.0847 9.83047 25.0847ZM31.5254 21.0169C31.322 21.0169 31.1864 20.8813 31.1864 20.6779C31.1864 20.1355 30.7118 19.6609 30.1694 19.6609C29.627 19.6609 29.1525 20.1355 29.1525 20.6779C29.1525 20.8813 29.0169 21.0169 28.8135 21.0169C28.6101 21.0169 28.4745 20.8813 28.4745 20.6779C28.4745 19.7287 29.2203 18.983 30.1694 18.983C31.1185 18.983 31.8643 19.7288 31.8643 20.6779C31.8644 20.8814 31.7288 21.0169 31.5254 21.0169ZM26.1016 21.0169C25.8983 21.0169 25.7626 20.8813 25.7626 20.6779C25.7626 20.1355 25.2881 19.6609 24.7457 19.6609C24.2033 19.6609 23.7287 20.1355 23.7287 20.6779C23.7287 20.8813 23.5931 21.0169 23.3897 21.0169C23.1863 21.0169 23.0507 20.8813 23.0507 20.6779C23.0507 19.7287 23.7965 18.983 24.7456 18.983C25.6948 18.983 26.4405 19.7288 26.4405 20.6779C26.4407 20.8814 26.305 21.0169 26.1016 21.0169ZM33.5593 15.5932C32.0678 15.5932 30.7796 14.7119 30.1694 13.4237C29.5593 14.7118 28.2712 15.5932 26.7796 15.5932C25.288 15.5932 24 14.7118 23.3898 13.4237C22.7796 14.7118 21.4915 15.5932 20 15.5932C18.5084 15.5932 17.2203 14.7119 16.6101 13.4237C15.9999 14.7118 14.7118 15.5932 13.2203 15.5932C11.7288 15.5932 10.4406 14.7119 9.8304 13.4237C9.22023 14.7118 7.93212 15.5932 6.44054 15.5932C4.94896 15.5932 3.66101 14.7118 3.05085 13.4237C2.5763 14.5084 1.62712 15.2542 0.406779 15.5254C0.339009 15.5254 0.20339 15.5254 0.13562 15.4576C0.0678495 15.3898 0 15.322 0 15.1865V3.05085C0 1.35596 1.35596 0 3.05085 0H36.9492C38.644 0 40 1.35596 40 3.05085V15.1865C40 15.2542 39.9322 15.3898 39.8644 15.4576C39.7966 15.5254 39.661 15.5254 39.5932 15.5254C38.3729 15.2542 37.4237 14.5084 36.9492 13.4237C36.339 14.7118 35.0508 15.5932 33.5593 15.5932ZM30.5085 11.8644C30.5085 13.5593 31.8644 14.9152 33.5593 14.9152C35.2542 14.9152 36.6101 13.5593 36.6101 11.8644V3.05085C36.6101 2.84746 36.7458 2.71184 36.9492 2.71184C37.1525 2.71184 37.2882 2.84746 37.2882 3.05085V11.8644C37.2882 13.1525 38.1017 14.305 39.3221 14.7118V3.05085C39.3221 1.76274 38.2373 0.677939 36.9492 0.677939H3.05085C1.76274 0.677939 0.677939 1.76274 0.677939 3.05085V14.7118C1.89828 14.305 2.71184 13.1525 2.71184 11.8644V3.05085C2.71184 2.84746 2.84746 2.71184 3.05085 2.71184C3.25424 2.71184 3.38985 2.84746 3.38985 3.05085V11.8644C3.38985 13.5593 4.74581 14.9152 6.4407 14.9152C8.13559 14.9152 9.49155 13.5593 9.49155 11.8644V3.05085C9.49155 2.84746 9.62716 2.71184 9.83055 2.71184C10.0339 2.71184 10.1696 2.84746 10.1696 3.05085V11.8644C10.1696 13.5593 11.5255 14.9152 13.2204 14.9152C14.9153 14.9152 16.2713 13.5593 16.2713 11.8644V3.05085C16.2713 2.84746 16.4069 2.71184 16.6103 2.71184C16.8137 2.71184 16.9493 2.84746 16.9493 3.05085V11.8644C16.9493 13.5593 18.3052 14.9152 20.0001 14.9152C21.695 14.9152 23.051 13.5593 23.051 11.8644V3.05085C23.051 2.84746 23.1866 2.71184 23.39 2.71184C23.5934 2.71184 23.729 2.84746 23.729 3.05085V11.8644C23.729 13.5593 25.0849 14.9152 26.7798 14.9152C28.4747 14.9152 29.8307 13.5593 29.8307 11.8644V3.05085C29.8307 2.84746 29.9663 2.71184 30.1697 2.71184C30.3731 2.71184 30.5087 2.84746 30.5087 3.05085V11.8644H30.5085Z" fill="#51565F"/>
</svg>
