<svg width="512" height="504" viewBox="0 0 512 504" fill="none" xmlns="http://www.w3.org/2000/svg">
<path d="M256.013 503.966C397.388 503.966 511.995 391.149 511.995 251.983C511.995 112.817 397.388 0 256.013 0C114.637 0 0.0300293 112.817 0.0300293 251.983C0.0300293 391.149 114.637 503.966 256.013 503.966Z" fill="#79C9DB"/>
<path d="M256.015 503.967C114.64 503.967 0.032959 391.15 0.032959 251.984C0.032959 112.818 114.641 0 256.015 0V503.967Z" fill="#99DBFF"/>
<path d="M53.4749 249.798C45.4439 249.798 38.9299 243.387 38.9299 235.481V209.71C38.9299 201.804 45.4429 195.392 53.4749 195.392C61.5069 195.392 68.0199 201.803 68.0199 209.71V235.481C68.0199 243.388 61.5069 249.798 53.4749 249.798Z" fill="#924045"/>
<path d="M2.70611 215.698C-17.6268 353.202 78.979 481.001 218.688 501.273C340.298 518.918 454.506 449.27 495.802 340.291C325.602 231.305 73.87 217.416 2.70611 215.698Z" fill="#AC4045"/>
<path d="M2.70611 215.698C-17.6268 353.202 78.979 481.001 218.688 501.273C230.997 503.059 243.478 503.842 256.012 503.695L256.019 246.788C145.024 221.737 43.783 216.69 2.70611 215.698Z" fill="#C26053"/>
<path d="M127.742 353.442C128.526 316.843 136.421 272.689 161.321 229.385C149.163 227.623 137.379 226.09 126.027 224.746C84.7147 280.523 75.7518 341.324 75.8838 384.053L127.742 353.442Z" fill="#D29500"/>
<path d="M457.59 329.711C449.559 329.711 443.045 323.3 443.045 315.393V251.244C443.045 243.338 449.558 236.927 457.59 236.927C465.621 236.927 472.134 243.338 472.134 251.244V315.393C472.135 323.302 465.623 329.711 457.59 329.711Z" fill="#6B3E35"/>
<path d="M419.161 329.711C411.13 329.711 404.617 323.3 404.617 315.393V251.244C404.617 243.338 411.13 236.927 419.161 236.927C427.192 236.927 433.705 243.338 433.705 251.244V315.393C433.705 323.302 427.194 329.711 419.161 329.711Z" fill="#6B3E35"/>
<path d="M349.068 173.53C371.057 173.53 388.882 155.983 388.882 134.338C388.882 112.693 371.057 95.1465 349.068 95.1465C327.08 95.1465 309.254 112.693 309.254 134.338C309.254 155.983 327.08 173.53 349.068 173.53Z" fill="#FEAB00"/>
<path d="M47.9958 398.809C87.0218 452.374 147.208 490.902 218.687 501.271C358.55 521.564 488.645 426.405 509.26 288.726C509.676 285.951 510.027 283.18 510.346 280.412C250.722 261.551 99.7757 357.746 47.9958 398.809Z" fill="#D29500"/>
<path d="M47.9958 398.809C87.0218 452.374 147.208 490.902 218.687 501.271C231.231 503.091 243.698 503.983 256.013 503.999L256.012 300.647C148.239 328.085 79.6218 373.729 47.9958 398.809Z" fill="#FEAB00"/>
<path d="M261.152 299.371C242.322 304.01 224.648 309.204 208.144 314.767C226.095 333.437 289.184 406.748 276.735 503.195C320.61 499.727 361.973 485.162 397.428 462.015C372.39 373.347 301.333 322.073 261.152 299.371Z" fill="#AC4045"/>
<path d="M256.015 300.659C239.098 304.965 223.138 309.714 208.144 314.767C217.528 324.527 239.248 349.221 256.063 384.348L256.015 300.659Z" fill="#C26053"/>
</svg>
